<svg width="30" height="30" viewBox="0 0 30 30" fill="none" xmlns="http://www.w3.org/2000/svg">
<g clip-path="url(#clip0_37_333)">
<path d="M26.25 0H3.75C1.67907 0 0 1.67907 0 3.75V26.25C0 28.3209 1.67907 30 3.75 30H26.25C28.3209 30 30 28.3209 30 26.25V3.75C30 1.67907 28.3209 0 26.25 0ZM20.625 15.9375H10.7006L14.5641 19.8009C14.9306 20.1675 14.9306 20.7609 14.5641 21.1265C14.1975 21.4922 13.6041 21.4931 13.2384 21.1265L7.935 15.8231C7.71093 15.5991 7.64064 15.2906 7.69216 15C7.64059 14.7094 7.71093 14.4009 7.93593 14.1759L13.2394 8.8725C13.6059 8.50593 14.1994 8.50593 14.565 8.8725C14.9316 9.23907 14.9316 9.8325 14.565 10.1981L10.7006 14.0625H20.625C21.1425 14.0625 21.5625 14.4825 21.5625 15C21.5625 15.5175 21.1425 15.9375 20.625 15.9375Z" fill="#64748B"/>
</g>
<defs>
<clipPath id="clip0_37_333">
<rect width="30" height="30" fill="white"/>
</clipPath>
</defs>
</svg>
