<svg width="700" height="700" viewBox="0 0 700 700" fill="none" xmlns="http://www.w3.org/2000/svg">
<rect width="700" height="700" fill="#F9FAFB"/>
<path fill-rule="evenodd" clip-rule="evenodd" d="M431.503 291.206H269.497C268.245 291.206 267.231 292.216 267.231 293.462V389.596L312.772 344.241L359.312 390.591L395.663 354.388L433.769 392.339V293.462C433.769 292.216 432.755 291.206 431.503 291.206ZM269.497 285C264.804 285 261 288.789 261 293.462V406.538C261 411.211 264.804 415 269.497 415H431.503C436.196 415 440 411.211 440 406.538V293.462C440 288.789 436.196 285 431.503 285H269.497ZM373.357 337.11C380.657 337.11 386.575 331.216 386.575 323.945C386.575 316.675 380.657 310.781 373.357 310.781C366.056 310.781 360.138 316.675 360.138 323.945C360.138 331.216 366.056 337.11 373.357 337.11Z" fill="#64748B"/>
</svg>
